<svg width="24" height="24" viewBox="0 0 24 24" fill="none" xmlns="http://www.w3.org/2000/svg">
<g clip-path="url(#clip0_8_11)">
<path d="M11.5 1.7C14 1.8 15.8 2.5 17.6 3.9C19.8 5.5 21.1 7.8 21.6 10.6C21.7 11.4 21.8 12 21.8 12.9C21.8 13.6 21.9 13.8 22 14C22.1 14.2 22.3 14.3 22.4 14.3C22.5 14.3 22.6 14.3 22.6 14.2C22.8 14.1 22.9 13.8 22.8 13.5C22.8 13.4 22.7 13.3 22.7 12.8C22.7 11.8 22.6 11.2 22.4 10.4C21.8 7.3 20.4 4.8 18 3.1C16 1.6 14 0.899999 11.3 0.699999C10.5 0.699999 10.4 0.599999 10.4 0.599999C10.2 0.399999 9.89995 0.499999 9.69995 0.699999C9.79995 0.899999 9.79995 1.2 9.99995 1.4C10.4 1.6 10.7 1.7 11.5 1.7Z" fill="#118DF0"/>
<path d="M17.9 8.5C18.4 9.4 18.7 10.5 18.7 11.6C18.7 12.3 18.8 12.9 19.4 13.3C19.5 13.3 19.5 13.4 19.6 13.4C19.8 13.4 20 13.3 20 13.1C20.1 12.9 19.9999 12.6 19.7999 12.4C19.6999 12.4 19.6 12.3 19.6 11.6C19.6 10.3 19.3 9 18.7 8C18.1 6.8 17.1 5.8 16 5.2C15 4.6 13.6 4.2 12.3 4.1C11.9 4.1 11.8 4 11.8 3.9C11.6 3.7 11.3 3.7 11.1 3.9C10.9 4.1 10.9 4.4 11.1 4.6C11.3 4.9 11.8 5 12.2 5C13.4 5.1 14.6 5.5 15.5 6C16.5 6.6 17.3 7.4 17.9 8.5Z" fill="#118DF0"/>
<path d="M16.3999 10.8C16.2999 10.1 16.1999 9.6 15.9999 9.2C15.4999 8.2 14.6999 7.6 13.2999 7.5C12.7999 7.4 12.7999 7.4 12.6999 7.3C12.4999 7.1 12.1999 7 11.9999 7.2C11.7999 7.4 11.7999 7.7 11.8999 7.9C12.1999 8.2 12.4999 8.3 13.0999 8.4C14.0999 8.5 14.6999 8.9 14.9999 9.6C15.1999 10 15.2999 10.4 15.2999 10.9C15.3999 11.4 15.4999 11.8 15.7999 12C15.8999 12.1 15.9999 12.1 16.0999 12.1C16.2999 12.1 16.3999 12 16.4999 11.9C16.6999 11.7 16.5999 11.4 16.3999 11.2C16.4999 11.2 16.3999 11.2 16.3999 10.8Z" fill="#118DF0"/>
<path d="M22.8 17.8C22.5 17.5 20.9 16.2 20.2 15.7C19.6 15.3 18.8 14.8 18.3 14.6C17.7 14.3 17 14.2 16.4 14.4C15.9 14.6 15.7 14.8 15.1 15.5C14.8 15.8 14.6 16.1 14.6 16.2C14.6 16.2 14.5 16.3 14.4 16.3C14.1 16.4 13.6 16.3 12.7 15.9C11.9 15.5 11.3 15 10.5 14.3C9.79997 13.7 9.19997 12.9 8.79997 12.3C8.29997 11.5 7.99997 10.5 7.99997 10.1C7.99997 9.9 7.99997 9.6 8.09997 9.5L8.19997 9.4C8.29997 9.3 8.49997 9.2 8.69997 9C9.59997 8.3 9.89997 8 9.99997 7.5C10.1 7 9.99997 6.4 9.59997 5.6C8.99997 4.4 7.09997 1.8 6.29997 1.3C6.19997 1.2 5.89997 1.1 5.79997 1C5.39997 0.9 4.89997 0.9 4.59997 0.9C4.19997 1 3.69997 1.3 2.69997 2C2.19997 2.4 1.39997 3.2 1.09997 3.6C0.599966 4.6 0.699966 5.4 1.19997 6.7C1.89997 8.5 2.79997 10.3 3.89997 12.1C4.09997 12.4 4.19997 12.6 4.39997 12.9C4.59997 13.2 4.79997 13.4 4.99997 13.7C6.79997 16.2 8.99997 18.3 11.5 20L11.6 20.1C11.7 20.2 11.9 20.3 12 20.4L12.3 20.6C12.5 20.7 12.6 20.8 12.8 20.9L15.6 22.5C15.8 22.6 16 22.7 16.2 22.8L16.5 22.9C16.8 23 17.1 23.2 17.4 23.3C18 23.5 18.3 23.6 18.7 23.6C18.8 23.6 18.8 23.6 18.9 23.6C19.6 23.6 20.2 23.3 20.9 22.8C21.7 22.2 22.8 20.9 23.1 20.1C23.4 19.2 23.3 18.4 22.8 17.8Z" fill="#118DF0"/>
</g>
<defs>
<clipPath id="clip0_8_11">
<rect width="24" height="24" fill="white"/>
</clipPath>
</defs>
</svg>
